<?xml version="1.0" ?><!DOCTYPE svg  PUBLIC '-//W3C//DTD SVG 1.1//EN'  'http://www.w3.org/Graphics/SVG/1.1/DTD/svg11.dtd'><svg enable-background="new 0 0 512 512" height="512px" id="Layer_1" version="1.1" viewBox="0 0 512 512" width="512px" xml:space="preserve" xmlns="http://www.w3.org/2000/svg" xmlns:xlink="http://www.w3.org/1999/xlink"><path d="M492.668,442.879c0,34.172-27.702,61.873-61.873,61.873H81.052c-34.171,0-61.875-27.701-61.875-61.873  V93.135c0-34.171,27.704-61.873,61.875-61.873h349.743c34.171,0,61.873,27.702,61.873,61.873V442.879z" fill="#127B9B"/><path d="M492.668,418.135c0,34.172-27.702,61.873-61.873,61.873H81.052c-34.171,0-61.875-27.701-61.875-61.873  V68.391c0-34.171,27.704-61.872,61.875-61.872h349.743c34.171,0,61.873,27.701,61.873,61.872V418.135z" fill="#7CCEF4"/><g><path d="M492.668,418.135V296.473c-2.404-2.402-4.833-4.783-7.228-7.192c-4.153-4.179-8.319-8.347-12.5-12.499   c-16.721-16.612-33.279-33.388-50-50c-16.721-16.612-33.279-33.388-50-50c-8.36-8.306-16.64-16.693-25-25   c-3.761-3.737-7.518-7.439-11.598-10.833c-3.974-3.306-8.147-6.374-12.489-9.178c-17.791-11.492-38.363-18.429-59.482-20.046   c-22.665-1.736-45.639,2.584-66.065,12.572c-2.49,1.218-4.94,2.516-7.345,3.892c-1.152,0.659-2.294,1.336-3.424,2.03   c-0.412,0.253-3.205,2.263-3.429,2.065c-1.963-2.191-4.218-4.124-6.24-6.26c-2.022-2.137-4.166-4.174-6.247-6.254   c-2.081-2.081-4.117-4.225-6.253-6.246c-2.136-2.022-4.069-4.277-6.26-6.24c-0.931-1.039-1.961-2.069-3-3   c-0.952-1.063-2.005-2.121-3.074-3.065c-1.924-1.702-4.343-2.807-6.894-3.126c-4.569-0.572-9.186,1.395-11.942,5.08   c-2.907,3.886-3.395,9.246-1.216,13.588c1.237,2.466,3.329,4.151,5.19,6.117c2.023,2.137,4.167,4.173,6.247,6.253   c2.08,2.081,4.117,4.224,6.253,6.247c2.136,2.022,4.069,4.277,6.26,6.24c1.481,1.65,3.129,3.235,4.74,4.76   c0.799,0.757,1.615,1.539,2.359,2.349c-0.873,0.869-1.733,1.75-2.58,2.644c-3.393,3.576-6.582,7.346-9.545,11.286   c-2.156-1.988-4.032-4.299-6.245-6.224c-1.934-2.214-4.231-4.115-6.237-6.263c-2.006-2.148-4.168-4.174-6.246-6.254   c-1-1-2-1.999-3-3c-0.978-0.979-1.926-2.055-3.027-2.899c-3.85-2.951-9.386-2.739-13.011,0.469   c-3.583,3.171-4.53,8.569-2.187,12.757c0.893,1.594,2.254,2.709,3.482,4.024c1.436,1.539,2.962,3.064,4.5,4.5   c3.009,2.81,5.835,5.843,8.746,8.754c2.911,2.912,5.945,5.737,8.754,8.746c0.722,0.773,1.498,1.506,2.246,2.254   c0.324,0.324,0.641,0.649,0.962,0.974c-0.29,0.555-0.576,1.112-0.857,1.672c-1.017,2.019-1.981,4.064-2.891,6.134   c-2.067-2.091-4.1-4.308-6.288-6.271c-0.954-0.856-1.731-1.925-2.821-2.63c-1.117-0.721-2.445-1.08-3.773-1.025   c-4.845,0.202-7.78,5.724-5.271,9.871c0.611,1.01,1.585,1.979,2.499,2.713c0.957,1.19,2.211,2.136,3.229,3.271   c1.957,2.179,4.171,4.186,6.244,6.257c0.423,0.423,1.256,0.896,1.067,1.509c-0.214,0.693-0.423,1.387-0.625,2.083   c-0.44,1.514-0.853,3.034-1.237,4.563c-0.745,2.961-1.384,5.949-1.916,8.955c-3.94,22.25-2,45.474,5.685,66.728   c3.538,9.785,8.271,19.132,14.053,27.781c5.904,8.83,12.966,16.527,20.485,23.99c16.554,16.773,33.275,33.396,50,50   c16.554,16.773,33.275,33.396,50,50c8.277,8.387,16.639,16.699,25,25c4.139,4.193,8.33,8.338,12.499,12.501   c2.132,2.129,4.243,4.284,6.378,6.415h118.691C464.966,480.008,492.668,452.307,492.668,418.135z" fill="#1794C6"/><path d="M242.859,474.229c-2.153-1.996-4.034-4.324-6.264-6.234c-1.917-2.228-4.239-4.109-6.236-6.266   c-1.997-2.154-4.169-4.176-6.245-6.254c-2.077-2.079-4.101-4.248-6.255-6.246c-2.153-1.996-4.034-4.324-6.264-6.234   c-1.917-2.228-4.239-4.109-6.236-6.266c-1.997-2.154-4.169-4.176-6.245-6.254c-2.077-2.079-4.101-4.248-6.255-6.246   c-2.153-1.996-4.034-4.324-6.264-6.234c-1.917-2.228-4.239-4.109-6.236-6.266c-1.997-2.154-4.169-4.176-6.245-6.254   c-2.077-2.079-4.101-4.248-6.255-6.246c-2.153-1.996-4.034-4.324-6.264-6.234c-1.917-2.228-4.239-4.109-6.236-6.266   c-1.997-2.154-4.169-4.176-6.245-6.254c-2.077-2.079-4.101-4.248-6.255-6.246c-2.102-1.948-3.962-4.165-6.092-6.083   c-3.641-3.278-9.375-3.026-12.726,0.534c-3.393,3.604-3.257,9.451,0.295,12.906c8.42,8.188,16.626,16.61,24.924,24.922   c16.651,16.683,33.349,33.318,50,50c7.826,7.842,15.662,15.67,23.499,23.5h25.895C246.737,478.072,244.854,476.078,242.859,474.229   z" fill="#1794C6"/><path d="M295.34,473.805c-2.141-2.016-4.06-4.289-6.262-6.238c-1.953-2.199-4.223-4.119-6.238-6.261   s-4.167-4.173-6.246-6.255c-2.079-2.08-4.113-4.229-6.254-6.246c-2.141-2.016-4.06-4.289-6.262-6.238   c-1.953-2.199-4.223-4.119-6.238-6.261c-2.016-2.142-4.167-4.173-6.246-6.255c-2.079-2.08-4.113-4.229-6.254-6.246   c-2.14-2.016-4.06-4.289-6.261-6.238c-1.953-2.199-4.223-4.119-6.239-6.261s-4.167-4.173-6.246-6.255   c-2.079-2.08-4.113-4.229-6.254-6.246c-2.14-2.016-4.06-4.289-6.261-6.238c-1.953-2.199-4.223-4.119-6.239-6.261   s-4.167-4.173-6.246-6.255c-2.079-2.08-4.113-4.229-6.254-6.246c-2.14-2.016-4.06-4.289-6.261-6.238   c-1.953-2.199-4.223-4.119-6.239-6.261s-4.167-4.173-6.246-6.255c-2.079-2.08-4.113-4.229-6.254-6.246   c-2.093-1.971-3.991-4.154-6.108-6.1c-1.897-1.743-4.349-2.828-6.917-3.04c-0.694-0.057-1.394-0.053-2.087,0.018   c-0.7,0.07-1.246,0.381-1.791-0.081c-0.993-1.164-2.198-2.143-3.234-3.266c-1.991-2.158-4.17-4.177-6.246-6.255   c-2.075-2.079-4.097-4.254-6.254-6.245c-1.953-1.803-3.616-4.203-6.045-5.402c-2.167-1.07-4.75-1.18-7.003-0.306   c-4.401,1.706-6.678,6.794-5.032,11.222c0.943,2.536,3.184,4.305,5.041,6.165c2.075,2.078,4.097,4.255,6.254,6.245   s4.025,4.338,6.266,6.234c1.907,2.234,4.245,4.105,6.234,6.266c0.958,1.039,2.146,1.899,2.869,3.119   c0.755,1.272,1.774,2.287,2.811,3.325c2.079,2.08,4.112,4.23,6.254,6.247c2.141,2.015,4.059,4.288,6.261,6.237   c1.951,2.201,4.223,4.12,6.239,6.263c2.016,2.141,4.167,4.172,6.246,6.253c2.079,2.08,4.112,4.23,6.254,6.247   c2.141,2.015,4.059,4.288,6.261,6.237c1.951,2.201,4.223,4.12,6.239,6.263c2.016,2.141,4.167,4.172,6.246,6.253   c2.079,2.08,4.112,4.23,6.254,6.247c2.141,2.015,4.059,4.288,6.261,6.237c1.951,2.201,4.223,4.12,6.239,6.263   c2.016,2.141,4.167,4.172,6.246,6.253c2.079,2.08,4.112,4.23,6.254,6.247c2.141,2.015,4.059,4.288,6.261,6.237   c1.951,2.201,4.223,4.12,6.239,6.263c2.016,2.141,4.167,4.172,6.246,6.253c2.079,2.08,4.112,4.23,6.254,6.247   c2.14,2.015,4.059,4.288,6.261,6.237c1.951,2.201,4.223,4.12,6.238,6.263c0.179,0.189,0.368,0.368,0.549,0.557h33.152   C299.486,477.941,297.466,475.807,295.34,473.805z" fill="#1794C6"/><g><path d="M383.341,172.601c-0.116,0.017-0.302-0.145-0.502-0.37c0.073,0.149,1.067,1.062,0.472,0.308    c-0.203-0.16-0.324-0.248-0.396-0.293C383.047,172.398,383.191,172.621,383.341,172.601z" fill="#1794C6"/><path d="M492.668,264.594c-2.468-2.469-4.932-4.939-7.408-7.407c-8.35-8.324-16.643-16.668-25-25    c-8.35-8.324-16.643-16.668-25-25c-8.35-8.324-16.643-16.668-25-25c-1.487-1.482-3.03-2.883-4.471-4.415    c-1.441-1.534-2.965-3.021-4.508-4.458c-3.344-3.112-6.32-6.625-9.68-9.724c-2.705-2.495-6.991-2.708-9.365,0.427    c-1.012,1.335-1.41,3.07-1.141,4.72c0.127,0.774,0.398,1.522,0.803,2.195c0.111,0.183,0.553,0.866,0.94,1.299    c-0.014-0.028,0.007-0.027,0.075,0.015c-0.059-0.066-0.115-0.122-0.17-0.131c0.178,0.034,0.438,0.323,0.566,0.424    c1.76,2.226,4.064,3.97,6.007,6.032c2.099,2.227,4.299,4.334,6.464,6.498c2.171,2.169,4.279,4.379,6.518,6.481    c2.044,1.919,10.076,9.96,12.019,12.021c2.099,2.227,4.299,4.334,6.464,6.498c2.171,2.169,16.594,16.441,18.536,18.502    c2.099,2.227,4.299,4.334,6.464,6.498c2.171,2.169,4.279,4.379,6.518,6.481c2.044,1.919,3.813,4.247,6.012,5.99    c1.76,2.226,4.064,3.97,6.007,6.032c2.099,2.227,4.299,4.335,6.464,6.497c2.171,2.17,4.279,4.38,6.518,6.481    c2.044,1.919,3.813,4.247,6.012,5.989c1.76,2.227,4.064,3.971,6.007,6.032c1.095,1.163,2.219,2.292,3.351,3.415V264.594z" fill="#1794C6"/></g></g><path d="M276.561,170.644v-28.446c38.738,8.943,66.67,35.615,75.58,77.58H323.83  C316.496,193.954,299.158,178.011,276.561,170.644z M234.592,170.619v-28.421c-45.195,8.943-68.936,35.615-77.844,77.58h28.323  C192.41,193.954,211.992,178.011,234.592,170.619z M185.07,258.519h-28.323c8.92,48.426,32.649,70.927,77.844,79.868v-28.421  C211.992,302.599,192.43,281.117,185.07,258.519z M382.896,240.313c0,71.23-57.496,128.973-128.436,128.973  c-70.941,0-128.445-57.742-128.445-128.973c0-71.245,57.504-128.968,128.445-128.968C325.4,111.344,382.896,169.067,382.896,240.313  z M370.027,240.298c0-64.094-51.746-116.067-115.58-116.067c-63.84,0-115.575,51.973-115.575,116.067  c0,64.105,51.735,116.04,115.575,116.04C318.281,356.338,370.027,304.403,370.027,240.298z M254.447,299.09  c-32.346-0.039-58.506-26.326-58.563-58.777c0.057-32.492,26.217-58.752,58.563-58.818c32.359,0.065,58.506,26.326,58.557,58.818  C312.953,272.764,286.807,299.051,254.447,299.09z M299.998,240.313c0-25.271-20.381-45.757-45.537-45.757  c-25.164,0-45.555,20.487-45.555,45.757c0,25.252,20.391,45.724,45.555,45.724C279.617,286.036,299.998,265.564,299.998,240.313z   M276.561,309.966v28.421c38.738-8.941,66.67-31.442,75.58-79.868H323.83C316.484,281.117,299.158,302.599,276.561,309.966z   M386.977,315.571c-7.857,0-14.236,6.399-14.236,14.297c0,7.891,6.379,14.29,14.236,14.29s14.219-6.399,14.219-14.29  C401.195,321.971,394.834,315.571,386.977,315.571z M352.574,352.006c-10.055,0-18.189,8.17-18.189,18.271  c0,10.07,8.135,18.259,18.189,18.259c10.033,0,18.193-8.188,18.193-18.259C370.768,360.176,362.607,352.006,352.574,352.006z   M382.441,269.134c-4.576,0-8.301,3.738-8.301,8.337c0,4.597,3.725,8.331,8.301,8.331c4.6,0,8.318-3.734,8.318-8.331  C390.76,272.872,387.041,269.134,382.441,269.134z M130.689,365.803c-5.057,0-9.143,4.114-9.143,9.17c0,5.087,4.086,9.2,9.143,9.2  c5.031,0,9.129-4.113,9.129-9.2C139.818,369.917,135.721,365.803,130.689,365.803z M127.813,317.539  c-4.828,0-8.738,3.91-8.738,8.759c0,4.828,3.91,8.77,8.738,8.77c4.83,0,8.721-3.941,8.721-8.77  C136.533,321.449,132.643,317.539,127.813,317.539z M156.346,339.626c-6.457,0-11.705,5.266-11.705,11.756  c0,6.504,5.248,11.753,11.705,11.753c6.48,0,11.707-5.249,11.707-11.753C168.053,344.892,162.826,339.626,156.346,339.626z   M387.07,161.619c-3.365,0-6.084,2.725-6.084,6.127c0,3.357,2.719,6.109,6.084,6.109c3.381,0,6.105-2.752,6.105-6.109  C393.176,164.344,390.451,161.619,387.07,161.619z M120.934,135.902c-5.662,0-10.283,4.623-10.283,10.331  c0,5.686,4.621,10.305,10.283,10.305c5.682,0,10.285-4.619,10.285-10.305C131.219,140.525,126.615,135.902,120.934,135.902z   M144.535,97.991c-7.15,0-12.92,5.795-12.92,12.975c0,7.156,5.77,12.949,12.92,12.949c7.13,0,12.9-5.793,12.9-12.949  C157.436,103.786,151.666,97.991,144.535,97.991z M124.289,178.366c-3.588,0-6.482,2.918-6.482,6.51c0,3.586,2.895,6.51,6.482,6.51  c3.58,0,6.486-2.924,6.486-6.51C130.775,181.284,127.869,178.366,124.289,178.366z" fill="#FFFFFF" id="DesignFloat_2_"/></svg>